<svg xmlns="http://www.w3.org/2000/svg" xmlns:xlink="http://www.w3.org/1999/xlink" viewBox="0 0 214.5 214.5"><defs><style>.cls-1{fill:url(#Adsız_degrade_15);}.cls-2{fill:url(#Adsız_degrade_15-2);}.cls-3{fill:url(#Adsız_degrade_15-3);}.cls-4{fill:url(#Adsız_degrade_15-4);}.cls-5{fill:url(#Adsız_degrade_15-5);}.cls-6{fill:url(#Adsız_degrade_15-6);}.cls-7{fill:url(#Adsız_degrade_15-7);}.cls-8{fill:url(#Adsız_degrade_15-8);}.cls-9{fill:url(#Adsız_degrade_15-9);}.cls-10{fill:url(#Adsız_degrade_15-10);}.cls-11{fill:url(#Adsız_degrade_15-11);}.cls-12{fill:none;}</style><linearGradient id="Adsız_degrade_15" x1="26.44" y1="15.29" x2="25.78" y2="204.62" gradientUnits="userSpaceOnUse"><stop offset="0" stop-color="#72f1c4"/><stop offset="1" stop-color="#1045b3"/></linearGradient><linearGradient id="Adsız_degrade_15-2" x1="14.73" y1="15.25" x2="14.07" y2="204.57" xlink:href="#Adsız_degrade_15"/><linearGradient id="Adsız_degrade_15-3" x1="70.82" y1="15.44" x2="70.17" y2="204.77" xlink:href="#Adsız_degrade_15"/><linearGradient id="Adsız_degrade_15-4" x1="182.91" y1="15.83" x2="182.25" y2="205.16" xlink:href="#Adsız_degrade_15"/><linearGradient id="Adsız_degrade_15-5" x1="169.42" y1="15.79" x2="168.76" y2="205.11" xlink:href="#Adsız_degrade_15"/><linearGradient id="Adsız_degrade_15-6" x1="122.81" y1="15.63" x2="122.15" y2="204.95" xlink:href="#Adsız_degrade_15"/><linearGradient id="Adsız_degrade_15-7" x1="87.29" y1="15.5" x2="86.63" y2="204.83" xlink:href="#Adsız_degrade_15"/><linearGradient id="Adsız_degrade_15-8" x1="97.72" y1="15.54" x2="97.06" y2="204.86" xlink:href="#Adsız_degrade_15"/><linearGradient id="Adsız_degrade_15-9" x1="112.4" y1="15.59" x2="111.74" y2="204.91" xlink:href="#Adsız_degrade_15"/><linearGradient id="Adsız_degrade_15-10" x1="140.93" y1="15.69" x2="140.27" y2="205.01" xlink:href="#Adsız_degrade_15"/><linearGradient id="Adsız_degrade_15-11" x1="173.77" y1="15.8" x2="173.11" y2="205.13" xlink:href="#Adsız_degrade_15"/></defs><title>Varlık 4</title><g id="katman_2" data-name="katman 2"><g id="katman_1-2" data-name="katman 1"><path class="cls-1" d="M25.36,171.75a7,7,0,0,1-6.66-7,7.12,7.12,0,0,1,7.18-7.21,7.13,7.13,0,1,1-.52,14.22Z"/><path class="cls-2" d="M21.28,179.12A7.12,7.12,0,1,1,7,179.18a7,7,0,0,1,7.2-7.14A6.94,6.94,0,0,1,21.28,179.12Z"/><path class="cls-3" d="M93.09,47.69a24.88,24.88,0,0,1-1.35-6.53H55.93a9.32,9.32,0,0,0-9.32,9.32v71q6.41-8.45,12.83-16.87V61.09a9.32,9.32,0,0,1,9.32-9.32h26A43.66,43.66,0,0,1,93.09,47.69Z"/><path class="cls-4" d="M181.91,105.38l1.38.2c-.44.71-.91,1.41-1.38,2.1Z"/><path class="cls-5" d="M172.59,51.77H143.81a27.08,27.08,0,0,0,2.85-10.61h38.75a9.32,9.32,0,0,1,9.32,9.32V66.56A10,10,0,0,0,189,70.11c-1.51,1.87-3,3.81-4.38,5.68-.74,1-1.49,2-2.24,3-.16.21-.32.42-.47.64V61.09A9.32,9.32,0,0,0,172.59,51.77Z"/><path class="cls-6" d="M194.83,99.76c0,4.21,0,8.43,0,12.64,0,3.47,0,6.95-.07,10.42V142c-.46,6-5.16,9.39-10.58,9.32-17.1-.18-34.19-.12-51.28-.15-1.62,0-2.27,0-2.53.56a5.78,5.78,0,0,0-.18,2.08c0,6.56,0,13.12-.07,19.68,0,1.56.31,2.16,2.07,2.14,8.42-.1,16.85-.05,25.27,0a14,14,0,0,1,13.26,10c.52,1.79-.46,1.82-1.78,1.82q-37.92,0-75.84,0H75.37c-2.16,0-2.17,0-1.43-2.11a13.73,13.73,0,0,1,13.69-9.67c4.55.05,9.13.11,13.67.12,3.8,0,7.63.13,11.44-.12,1.42-.09,1.51-.84,1.51-1.88l-.09-18.6c0-.18,0-.36,0-.54-.06-1.55-.09-2.4-.43-2.87H55.93a9.27,9.27,0,0,1-6-2.14l.89-1.17,9.53-12.48a9.32,9.32,0,0,0,8.36,5.19H172.59a9.33,9.33,0,0,0,3.09-.53,7.75,7.75,0,0,0,5.6-5,5.37,5.37,0,0,0,.4-1.73,9.45,9.45,0,0,0,.23-2.07V112.62c1.3-1.73,2.58-3.52,3.76-5.39,1.41-1.8,2.76-3.65,4.06-5.45s2.53-3.48,3.83-5.15c.4-.5.79-1,1.17-1.51v3.7C195,99,194.83,99.45,194.83,99.76Z"/><path class="cls-7" d="M131.77,60.26C127,63.22,121.6,64,116,63.73a5.57,5.57,0,0,1-1.08-.1A5.33,5.33,0,0,0,111,64L89.45,92.11,42.09,153.79a6.48,6.48,0,0,1-2.33,1.93A6.63,6.63,0,0,1,30.23,149h0a6.59,6.59,0,0,1,1.31-3.22L58,111.35l.1-.13,17-22.15.15-.19,2.13-2.78L79.68,83l0,0,3-4,17.63-23c-.26-.51-.64-1-.92-1.57a56.24,56.24,0,0,1-3.62-7.79c-4.45-12.57,3.28-27.81,16.09-31.4a22.93,22.93,0,0,1,8-.75,3.67,3.67,0,0,1,2,.79q-5.6,7.53-11.18,15a1.8,1.8,0,0,0-.53,1.63c1.24,4.24,2.5,8.47,3.68,12.72.28,1,.88,1.16,1.74,1.13,4.33-.12,8.66-.27,13-.3,1.14,0,1.58-.76,2.08-1.45,3.31-4.53,6.57-9.08,9.86-13.62.31-.43.71-.8,1.24-1.39a17.61,17.61,0,0,1,1.83,6.39C144.67,46.12,141,54.59,131.77,60.26Z"/><path class="cls-8" d="M122.4,66.54h0a6.64,6.64,0,0,0-5.31,2.66L65.76,136.9H82.38l45.33-59.72A6.65,6.65,0,0,0,122.4,66.54Z"/><path class="cls-9" d="M125.65,97.25h0a6.63,6.63,0,0,0-5.31,2.65l-28.57,37h16.62l22.57-29A6.64,6.64,0,0,0,125.65,97.25Z"/><path class="cls-10" d="M157.08,88.94h0a6.63,6.63,0,0,0-5.31,2.65L117.42,136.9H134l28.35-37.32A6.65,6.65,0,0,0,157.08,88.94Z"/><path class="cls-11" d="M197.18,69.43h0a6.64,6.64,0,0,0-5.31,2.66l-48.8,64.81h16.62l42.8-56.83A6.65,6.65,0,0,0,197.18,69.43Z"/><rect class="cls-12" width="214.5" height="214.5"/></g></g></svg>